<svg version="1.1" viewBox="0.0 0.0 392.9212598425197 410.251968503937" fill="none" stroke="none" stroke-linecap="square" stroke-miterlimit="10" xmlns:xlink="http://www.w3.org/1999/xlink" xmlns="http://www.w3.org/2000/svg"><clipPath id="p.0"><path d="m0 0l392.92126 0l0 410.25198l-392.92126 0l0 -410.25198z" clip-rule="nonzero"/></clipPath><g clip-path="url(#p.0)"><path fill="#000000" fill-opacity="0.0" d="m0 0l392.92126 0l0 410.25198l-392.92126 0z" fill-rule="evenodd"/><path fill="#000000" fill-opacity="0.0" d="m192.42258 43.742783l0 307.46454" fill-rule="evenodd"/><path stroke="#441122" stroke-width="2.0" stroke-linejoin="round" stroke-linecap="butt" d="m192.42258 50.596954l0 293.75623" fill-rule="evenodd"/><path fill="#441122" stroke="#441122" stroke-width="2.0" stroke-linecap="butt" d="m192.42258 50.596954l2.2491608 2.2491684l-2.2491608 -6.179535l-2.249176 6.179535z" fill-rule="evenodd"/><path fill="#441122" stroke="#441122" stroke-width="2.0" stroke-linecap="butt" d="m192.42258 344.35318l-2.249176 -2.249176l2.249176 6.179535l2.2491608 -6.179535z" fill-rule="evenodd"/><path fill="#000000" fill-opacity="0.0" d="m346.14435 202.06299l-295.62204 0" fill-rule="evenodd"/><path stroke="#441122" stroke-width="2.0" stroke-linejoin="round" stroke-linecap="butt" d="m339.2902 202.06299l-281.9137 0" fill-rule="evenodd"/><path fill="#441122" stroke="#441122" stroke-width="2.0" stroke-linecap="butt" d="m339.2902 202.06299l-2.249176 2.249176l6.179535 -2.249176l-6.179535 -2.2491608z" fill-rule="evenodd"/><path fill="#441122" stroke="#441122" stroke-width="2.0" stroke-linecap="butt" d="m57.376484 202.06299l2.2491646 -2.2491608l-6.179535 2.2491608l6.179535 2.249176z" fill-rule="evenodd"/><path fill="#000000" fill-opacity="0.0" d="m151.03674 0l82.77165 0l0 37.637794l-82.77165 0z" fill-rule="evenodd"/><path fill="#441122" d="m166.818 13.88625q2.546875 0 4.03125 1.234375q1.484375 1.234375 1.578125 3.59375l-1.90625 0q-0.1875 -1.5625 -1.140625 -2.328125q-0.9375 -0.78125 -2.640625 -0.78125q-1.625 0 -2.53125 0.671875q-0.890625 0.671875 -0.890625 1.921875q0 0.890625 0.765625 1.46875q0.765625 0.5625 4.125 1.234375q2.4375 0.5 3.640625 1.53125q1.21875 1.03125 1.21875 2.875q0 2.125 -1.734375 3.328125q-1.734375 1.203125 -4.21875 1.203125q-2.765625 0 -4.515625 -1.375q-1.75 -1.390625 -1.765625 -4.0l1.90625 0q0.03125 1.75 1.25 2.71875q1.21875 0.953125 3.1875 0.953125q1.84375 0 2.84375 -0.703125q1.015625 -0.71875 1.015625 -2.0625q0 -1.09375 -0.921875 -1.75q-0.921875 -0.65625 -3.359375 -1.125q-3.25 -0.609375 -4.359375 -1.578125q-1.09375 -0.984375 -1.09375 -2.5625q0 -2.0625 1.546875 -3.265625q1.5625 -1.203125 3.96875 -1.203125zm13.1633 4.3125q2.5 0 3.921875 1.625q1.421875 1.609375 1.421875 4.15625q0 2.578125 -1.453125 4.171875q-1.453125 1.59375 -3.890625 1.59375q-2.390625 0 -3.875 -1.5625q-1.484375 -1.578125 -1.484375 -4.203125q0 -2.625 1.453125 -4.203125q1.453125 -1.578125 3.90625 -1.578125zm-3.4375 5.78125q0 1.890625 0.96875 3.03125q0.96875 1.125 2.46875 1.125q1.484375 0 2.453125 -1.125q0.984375 -1.140625 0.984375 -3.03125q0 -1.890625 -0.96875 -3.03125q-0.96875 -1.15625 -2.484375 -1.15625q-1.46875 0 -2.453125 1.140625q-0.96875 1.125 -0.96875 3.046875zm15.528259 -5.78125q2.015625 0 3.28125 0.96875q1.265625 0.953125 1.46875 2.828125l-1.859375 0q-0.21875 -1.078125 -0.9375 -1.640625q-0.71875 -0.5625 -1.796875 -0.5625q-1.6875 0 -2.5625 1.140625q-0.875 1.125 -0.875 3.171875q0 1.828125 0.859375 2.9375q0.875 1.09375 2.359375 1.09375q1.328125 0 2.09375 -0.703125q0.765625 -0.71875 0.9375 -1.984375l1.84375 0q-0.296875 2.0625 -1.546875 3.1875q-1.25 1.109375 -3.3125 1.109375q-2.40625 0 -3.78125 -1.515625q-1.375 -1.515625 -1.375 -4.125q0 -2.703125 1.390625 -4.296875q1.390625 -1.609375 3.8125 -1.609375zm8.768036 -3.9375l0 2.21875l-1.8125 0l0 -2.21875l1.8125 0zm0 4.1875l0 11.03125l-1.8125 0l0 -11.03125l1.8125 0zm7.332184 -0.25q2.25 0 3.1875 0.8125q0.953125 0.796875 0.953125 2.140625q0 5.734375 0 6.359375q0 0.625 0.5625 0.625q0.125 0 0.265625 -0.03125q0.15625 -0.03125 0.28125 -0.078125l0 1.40625q-0.25 0.15625 -0.578125 0.234375q-0.3125 0.078125 -0.703125 0.078125q-0.75 0 -1.15625 -0.421875q-0.390625 -0.421875 -0.390625 -1.296875q-0.71875 0.859375 -1.703125 1.296875q-0.96875 0.421875 -2.171875 0.421875q-1.71875 0 -2.6875 -0.8125q-0.96875 -0.8125 -0.96875 -2.28125q0 -1.5 0.953125 -2.359375q0.953125 -0.875 4.453125 -1.3125q1.1875 -0.15625 1.609375 -0.453125q0.421875 -0.3125 0.421875 -0.90625q0 -0.921875 -0.59375 -1.375q-0.578125 -0.453125 -1.859375 -0.453125q-1.34375 0 -2.015625 0.515625q-0.671875 0.5 -0.71875 1.578125l-1.8125 0q0.078125 -1.828125 1.28125 -2.75q1.21875 -0.9375 3.390625 -0.9375zm-3.1875 8.3125q0 0.765625 0.5625 1.203125q0.5625 0.421875 1.578125 0.421875q1.53125 0 2.4375 -0.75q0.921875 -0.765625 0.921875 -1.703125l0 -1.90625q-0.453125 0.328125 -1.1875 0.453125q-0.734375 0.109375 -1.9375 0.265625q-1.203125 0.1875 -1.796875 0.671875q-0.578125 0.46875 -0.578125 1.34375zm12.049286 -12.25l0 15.21875l-1.8125 0l0 -15.21875l1.8125 0z" fill-rule="nonzero"/><path fill="#000000" fill-opacity="0.0" d="m140.34908 351.20734l115.96852 0l0 45.13388l-115.96852 0z" fill-rule="evenodd"/><path fill="#441122" d="m153.1147 365.4686l0 15.21875l-2.015625 0l0 -15.21875l2.015625 0zm8.456985 3.9375q2.0 0 2.890625 1.03125q0.90625 1.015625 0.90625 2.90625l0 7.34375l-1.8125 0l0 -7.53125q0 -0.9375 -0.609375 -1.546875q-0.59375 -0.609375 -1.65625 -0.609375q-1.53125 0 -2.390625 0.953125q-0.859375 0.9375 -0.859375 2.4375l0 6.296875l-1.8125 0l0 -11.03125l1.71875 0l0 1.75l0.03125 0q0.609375 -1.03125 1.484375 -1.515625q0.890625 -0.484375 2.109375 -0.484375zm16.37732 -3.9375l0 15.21875l-1.8125 0l0 -1.484375l-0.046875 0q-0.421875 0.84375 -1.359375 1.296875q-0.921875 0.453125 -2.15625 0.453125q-2.3125 0 -3.703125 -1.609375q-1.375 -1.609375 -1.375 -4.203125q0 -2.546875 1.34375 -4.140625q1.34375 -1.59375 3.6875 -1.59375q1.078125 0 2.046875 0.4375q0.984375 0.4375 1.515625 1.28125l0.046875 0l0 -5.65625l1.8125 0zm-8.53125 9.796875q0 1.78125 0.921875 2.9375q0.921875 1.140625 2.5 1.140625q1.59375 0 2.46875 -1.140625q0.890625 -1.15625 0.890625 -3.015625q0 -1.890625 -0.90625 -3.03125q-0.90625 -1.15625 -2.59375 -1.15625q-1.5625 0 -2.421875 1.140625q-0.859375 1.140625 -0.859375 3.125zm13.236496 -9.796875l0 2.21875l-1.8125 0l0 -2.21875l1.8125 0zm0 4.1875l0 11.03125l-1.8125 0l0 -11.03125l1.8125 0zm3.7853088 0l3.09375 9.203125l0.03125 0l3.015625 -9.203125l1.890625 0l-4.03125 11.03125l-1.9375 0l-4.09375 -11.03125l2.03125 0zm11.6171875 -4.1875l0 2.21875l-1.8125 0l0 -2.21875l1.8125 0zm0 4.1875l0 11.03125l-1.8125 0l0 -11.03125l1.8125 0zm12.675934 -4.1875l0 15.21875l-1.8125 0l0 -1.484375l-0.046875 0q-0.421875 0.84375 -1.359375 1.296875q-0.921875 0.453125 -2.15625 0.453125q-2.3125 0 -3.703125 -1.609375q-1.375 -1.609375 -1.375 -4.203125q0 -2.546875 1.34375 -4.140625q1.34375 -1.59375 3.6875 -1.59375q1.078125 0 2.046875 0.4375q0.984375 0.4375 1.515625 1.28125l0.046875 0l0 -5.65625l1.8125 0zm-8.53125 9.796875q0 1.78125 0.921875 2.9375q0.921875 1.140625 2.5 1.140625q1.59375 0 2.46875 -1.140625q0.890625 -1.15625 0.890625 -3.015625q0 -1.890625 -0.90625 -3.03125q-0.90625 -1.15625 -2.59375 -1.15625q-1.5625 0 -2.421875 1.140625q-0.859375 1.140625 -0.859375 3.125zm13.127121 -5.609375l0 7.515625q0 0.9375 0.59375 1.5625q0.609375 0.609375 1.65625 0.609375q1.5625 0 2.40625 -0.953125q0.859375 -0.953125 0.859375 -2.4375l0 -6.296875l1.8125 0l0 11.03125l-1.703125 0l0 -1.75l-0.046875 0q-0.609375 1.046875 -1.515625 1.53125q-0.90625 0.484375 -2.078125 0.484375q-1.921875 0 -2.859375 -1.0q-0.9375 -1.0 -0.9375 -2.9375l0 -7.359375l1.8125 0zm14.564819 -0.25q2.25 0 3.1875 0.8125q0.953125 0.796875 0.953125 2.140625q0 5.734375 0 6.359375q0 0.625 0.5625 0.625q0.125 0 0.265625 -0.03125q0.15625 -0.03125 0.28125 -0.078125l0 1.40625q-0.25 0.15625 -0.578125 0.234375q-0.3125 0.078125 -0.703125 0.078125q-0.75 0 -1.15625 -0.421875q-0.390625 -0.421875 -0.390625 -1.296875q-0.71875 0.859375 -1.703125 1.296875q-0.96875 0.421875 -2.171875 0.421875q-1.71875 0 -2.6875 -0.8125q-0.96875 -0.8125 -0.96875 -2.28125q0 -1.5 0.953125 -2.359375q0.953125 -0.875 4.453125 -1.3125q1.1875 -0.15625 1.609375 -0.453125q0.421875 -0.3125 0.421875 -0.90625q0 -0.921875 -0.59375 -1.375q-0.578125 -0.453125 -1.859375 -0.453125q-1.34375 0 -2.015625 0.515625q-0.671875 0.5 -0.71875 1.578125l-1.8125 0q0.078125 -1.828125 1.28125 -2.75q1.21875 -0.9375 3.390625 -0.9375zm-3.1875 8.3125q0 0.765625 0.5625 1.203125q0.5625 0.421875 1.578125 0.421875q1.53125 0 2.4375 -0.75q0.921875 -0.765625 0.921875 -1.703125l0 -1.90625q-0.453125 0.328125 -1.1875 0.453125q-0.734375 0.109375 -1.9375 0.265625q-1.203125 0.1875 -1.796875 0.671875q-0.578125 0.46875 -0.578125 1.34375zm12.049286 -12.25l0 15.21875l-1.8125 0l0 -15.21875l1.8125 0z" fill-rule="nonzero"/><path fill="#000000" fill-opacity="0.0" d="m0 163.28084l115.968506 0l0 45.133865l-115.968506 0z" fill-rule="evenodd"/><path fill="#441122" d="m17.4375 177.54208q2.09375 0 3.328125 1.140625q1.234375 1.125 1.234375 3.359375q0 2.234375 -1.234375 3.359375q-1.234375 1.125 -3.1875 1.125l-4.890625 0l0 6.234375l-2.015625 0l0 -15.21875l6.765625 0zm-0.5625 7.28125q1.453125 0 2.28125 -0.671875q0.828125 -0.6875 0.828125 -2.109375q0 -1.40625 -0.828125 -2.09375q-0.8125 -0.703125 -2.40625 -0.703125l-4.0625 0l0 5.578125l4.1875 0zm9.2258 -7.28125l0 15.21875l-1.8125 0l0 -15.21875l1.8125 0zm7.332184 3.9375q2.25 0 3.1875 0.8125q0.953125 0.796875 0.953125 2.140625q0 5.734375 0 6.359375q0 0.625 0.5625 0.625q0.125 0 0.265625 -0.03125q0.15625 -0.03125 0.28125 -0.078125l0 1.40625q-0.25 0.15625 -0.578125 0.234375q-0.3125 0.078125 -0.703125 0.078125q-0.75 0 -1.15625 -0.421875q-0.390625 -0.421875 -0.390625 -1.296875q-0.71875 0.859375 -1.703125 1.296875q-0.96875 0.421875 -2.171875 0.421875q-1.71875 0 -2.6875 -0.8125q-0.96875 -0.8125 -0.96875 -2.28125q0 -1.5 0.953125 -2.359375q0.953125 -0.875 4.453125 -1.3125q1.1875 -0.15625 1.609375 -0.453125q0.421875 -0.3125 0.421875 -0.90625q0 -0.921875 -0.59375 -1.375q-0.578125 -0.453125 -1.859375 -0.453125q-1.34375 0 -2.015625 0.515625q-0.671875 0.5 -0.71875 1.578125l-1.8125 0q0.078125 -1.828125 1.28125 -2.75q1.21875 -0.9375 3.390625 -0.9375zm-3.1875 8.3125q0 0.765625 0.5625 1.203125q0.5625 0.421875 1.578125 0.421875q1.53125 0 2.4375 -0.75q0.921875 -0.765625 0.921875 -1.703125l0 -1.90625q-0.453125 0.328125 -1.1875 0.453125q-0.734375 0.109375 -1.9375 0.265625q-1.203125 0.1875 -1.796875 0.671875q-0.578125 0.46875 -0.578125 1.34375zm13.799286 -8.3125q2.234375 0 3.3125 0.875q1.078125 0.859375 1.1875 2.578125l-1.8125 0l0 -0.03125q-0.078125 -0.875 -0.765625 -1.34375q-0.6875 -0.484375 -1.78125 -0.484375q-1.09375 0 -1.734375 0.375q-0.625 0.359375 -0.625 1.03125q0 0.609375 0.546875 1.0q0.5625 0.375 1.6875 0.609375l1.71875 0.390625q1.59375 0.359375 2.421875 1.09375q0.84375 0.734375 0.84375 1.96875q0 1.625 -1.265625 2.5625q-1.25 0.921875 -3.4375 0.921875q-2.109375 0 -3.359375 -0.953125q-1.234375 -0.953125 -1.3125 -2.796875l1.828125 0q0.03125 1.03125 0.8125 1.59375q0.78125 0.546875 2.140625 0.546875q1.3125 0 1.984375 -0.40625q0.6875 -0.421875 0.6875 -1.234375q0 -0.75 -0.671875 -1.171875q-0.671875 -0.4375 -2.765625 -0.859375q-2.078125 -0.40625 -2.9375 -1.140625q-0.84375 -0.75 -0.84375 -1.984375q0 -1.453125 1.171875 -2.296875q1.1875 -0.84375 2.96875 -0.84375zm9.5234375 -3.046875l0 3.296875l2.1875 0l0 1.609375l-2.1875 0l0 6.90625q0 0.8125 0.546875 0.859375q0.546875 0.046875 1.140625 0.046875l0.5 0l0 1.609375l-1.5 0q-1.484375 0 -2.0 -0.53125q-0.5 -0.53125 -0.5 -1.78125l0 -7.109375l-1.890625 0l0 -1.609375l1.890625 0l0 -3.296875l1.8125 0zm6.1077423 -0.890625l0 2.21875l-1.8125 0l0 -2.21875l1.8125 0zm0 4.1875l0 11.03125l-1.8125 0l0 -11.03125l1.8125 0zm7.425934 -0.25q2.015625 0 3.28125 0.96875q1.265625 0.953125 1.46875 2.828125l-1.859375 0q-0.21875 -1.078125 -0.9375 -1.640625q-0.71875 -0.5625 -1.796875 -0.5625q-1.6875 0 -2.5625 1.140625q-0.875 1.125 -0.875 3.171875q0 1.828125 0.859375 2.9375q0.875 1.09375 2.359375 1.09375q1.328125 0 2.09375 -0.703125q0.765625 -0.71875 0.9375 -1.984375l1.84375 0q-0.296875 2.0625 -1.546875 3.1875q-1.25 1.109375 -3.3125 1.109375q-2.40625 0 -3.78125 -1.515625q-1.375 -1.515625 -1.375 -4.125q0 -2.703125 1.390625 -4.296875q1.390625 -1.609375 3.8125 -1.609375zm8.768036 -3.9375l0 2.21875l-1.8125 0l0 -2.21875l1.8125 0zm0 4.1875l0 11.03125l-1.8125 0l0 -11.03125l1.8125 0zm5.347809 -3.296875l0 3.296875l2.1875 0l0 1.609375l-2.1875 0l0 6.90625q0 0.8125 0.546875 0.859375q0.546875 0.046875 1.140625 0.046875l0.5 0l0 1.609375l-1.5 0q-1.484375 0 -2.0 -0.53125q-0.5 -0.53125 -0.5 -1.78125l0 -7.109375l-1.890625 0l0 -1.609375l1.890625 0l0 -3.296875l1.8125 0zm5.0452423 3.296875l3.21875 9.015625l0.046875 0l3.09375 -9.015625l1.921875 0l-4.6875 12.203125q-0.734375 1.90625 -1.421875 2.578125q-0.6875 0.671875 -1.890625 0.671875q-0.328125 0 -0.640625 -0.046875q-0.3125 -0.046875 -0.625 -0.140625l0 -1.671875q0.265625 0.078125 0.53125 0.15625q0.265625 0.09375 0.53125 0.09375q1.109375 0 1.546875 -1.109375q0.4375 -1.09375 0.703125 -1.765625l-4.375 -10.96875l2.046875 0z" fill-rule="nonzero"/><path fill="#000000" fill-opacity="0.0" d="m261.6929 163.28084l115.968506 0l0 45.133865l-115.968506 0z" fill-rule="evenodd"/><path fill="#441122" d="m277.47415 177.16708q2.546875 0 4.03125 1.234375q1.484375 1.234375 1.578125 3.59375l-1.90625 0q-0.1875 -1.5625 -1.140625 -2.328125q-0.9375 -0.78125 -2.640625 -0.78125q-1.625 0 -2.53125 0.671875q-0.890625 0.671875 -0.890625 1.921875q0 0.890625 0.765625 1.46875q0.765625 0.5625 4.125 1.234375q2.4375 0.5 3.640625 1.53125q1.21875 1.03125 1.21875 2.875q0 2.125 -1.734375 3.328125q-1.734375 1.203125 -4.21875 1.203125q-2.765625 0 -4.515625 -1.375q-1.75 -1.390625 -1.765625 -4.0l1.90625 0q0.03125 1.75 1.25 2.71875q1.21875 0.953125 3.1875 0.953125q1.84375 0 2.84375 -0.703125q1.015625 -0.71875 1.015625 -2.0625q0 -1.09375 -0.921875 -1.75q-0.921875 -0.65625 -3.359375 -1.125q-3.25 -0.609375 -4.359375 -1.578125q-1.09375 -0.984375 -1.09375 -2.5625q0 -2.0625 1.546875 -3.265625q1.5625 -1.203125 3.96875 -1.203125zm10.866425 1.265625l0 3.296875l2.1875 0l0 1.609375l-2.1875 0l0 6.90625q0 0.8125 0.546875 0.859375q0.546875 0.046875 1.140625 0.046875l0.5 0l0 1.609375l-1.5 0q-1.484375 0 -2.0 -0.53125q-0.5 -0.53125 -0.5 -1.78125l0 -7.109375l-1.890625 0l0 -1.609375l1.890625 0l0 -3.296875l1.8125 0zm8.701508 3.046875q2.25 0 3.1875 0.8125q0.953125 0.796875 0.953125 2.140625q0 5.734375 0 6.359375q0 0.625 0.5625 0.625q0.125 0 0.265625 -0.03125q0.15625 -0.03125 0.28125 -0.078125l0 1.40625q-0.25 0.15625 -0.578125 0.234375q-0.3125 0.078125 -0.703125 0.078125q-0.75 0 -1.15625 -0.421875q-0.390625 -0.421875 -0.390625 -1.296875q-0.71875 0.859375 -1.703125 1.296875q-0.96875 0.421875 -2.171875 0.421875q-1.71875 0 -2.6875 -0.8125q-0.96875 -0.8125 -0.96875 -2.28125q0 -1.5 0.953125 -2.359375q0.953125 -0.875 4.453125 -1.3125q1.1875 -0.15625 1.609375 -0.453125q0.421875 -0.3125 0.421875 -0.90625q0 -0.921875 -0.59375 -1.375q-0.578125 -0.453125 -1.859375 -0.453125q-1.34375 0 -2.015625 0.515625q-0.671875 0.5 -0.71875 1.578125l-1.8125 0q0.078125 -1.828125 1.28125 -2.75q1.21875 -0.9375 3.390625 -0.9375zm-3.1875 8.3125q0 0.765625 0.5625 1.203125q0.5625 0.421875 1.578125 0.421875q1.53125 0 2.4375 -0.75q0.921875 -0.765625 0.921875 -1.703125l0 -1.90625q-0.453125 0.328125 -1.1875 0.453125q-0.734375 0.109375 -1.9375 0.265625q-1.203125 0.1875 -1.796875 0.671875q-0.578125 0.46875 -0.578125 1.34375zm12.002411 -12.25l0 5.6875l0.046875 0q0.421875 -0.859375 1.328125 -1.296875q0.921875 -0.453125 2.1875 -0.453125q2.375 0 3.71875 1.625q1.359375 1.625 1.359375 4.171875q0 2.5625 -1.359375 4.15625q-1.34375 1.59375 -3.65625 1.59375q-1.03125 0 -2.015625 -0.421875q-0.984375 -0.4375 -1.5625 -1.3125l-0.046875 0l0 1.46875l-1.8125 0l0 -15.21875l1.8125 0zm-0.0625 9.703125q0 1.90625 0.921875 3.046875q0.9375 1.125 2.5625 1.125q1.578125 0 2.4375 -1.125q0.859375 -1.125 0.859375 -3.140625q0 -1.78125 -0.90625 -2.921875q-0.90625 -1.15625 -2.515625 -1.15625q-1.59375 0 -2.484375 1.171875q-0.875 1.15625 -0.875 3.0zm12.752106 -9.703125l0 2.21875l-1.8125 0l0 -2.21875l1.8125 0zm0 4.1875l0 11.03125l-1.8125 0l0 -11.03125l1.8125 0zm4.738434 -4.1875l0 15.21875l-1.8125 0l0 -15.21875l1.8125 0zm4.738434 0l0 2.21875l-1.8125 0l0 -2.21875l1.8125 0zm0 4.1875l0 11.03125l-1.8125 0l0 -11.03125l1.8125 0zm5.347809 -3.296875l0 3.296875l2.1875 0l0 1.609375l-2.1875 0l0 6.90625q0 0.8125 0.546875 0.859375q0.546875 0.046875 1.140625 0.046875l0.5 0l0 1.609375l-1.5 0q-1.484375 0 -2.0 -0.53125q-0.5 -0.53125 -0.5 -1.78125l0 -7.109375l-1.890625 0l0 -1.609375l1.890625 0l0 -3.296875l1.8125 0zm5.0452576 3.296875l3.21875 9.015625l0.046875 0l3.09375 -9.015625l1.921875 0l-4.6875 12.203125q-0.734375 1.90625 -1.421875 2.578125q-0.6875 0.671875 -1.890625 0.671875q-0.328125 0 -0.640625 -0.046875q-0.3125 -0.046875 -0.625 -0.140625l0 -1.671875q0.265625 0.078125 0.53125 0.15625q0.265625 0.09375 0.53125 0.09375q1.109375 0 1.546875 -1.109375q0.4375 -1.09375 0.703125 -1.765625l-4.375 -10.96875l2.046875 0z" fill-rule="nonzero"/><path fill="#000000" fill-opacity="0.0" d="m230.17586 97.28346l115.96849 0l0 45.133865l-115.96849 0z" fill-rule="evenodd"/><path fill="#441122" d="m242.59773 111.544716l2.40625 10.359375l0.03125 0l2.65625 -10.359375l3.125 0l2.609375 10.484375l0.03125 0l2.5 -10.484375l3.2812347 0l-4.0937347 15.21875l-3.328125 0l-2.5625 -10.359375l-0.046875 0l-2.546875 10.359375l-3.390625 0l-4.03125 -15.21875l3.359375 0zm21.234665 0l0 2.484375l-3.03125 0l0 -2.484375l3.03125 0zm0 4.1875l0 11.03125l-3.03125 0l0 -11.03125l3.03125 0zm8.717407 -0.28125q2.109375 0 3.0625 1.0625q0.953125 1.0625 0.953125 3.359375l0 6.890625l-3.03125 0l0 -6.328125q0 -1.28125 -0.453125 -1.9375q-0.4375 -0.671875 -1.484375 -0.671875q-1.265625 0 -1.8125 0.75q-0.546875 0.75 -0.546875 2.296875l0 5.890625l-3.015625 0l0 -11.03125l2.875 0l0 1.546875l0.0625 0q0.546875 -0.890625 1.4375 -1.359375q0.890625 -0.46875 1.953125 -0.46875zm10.142761 -3.015625l0 3.296875l2.21875 0l0 2.03125l-2.21875 0l0 5.53125q0 0.671875 0.25 0.9375q0.265625 0.265625 1.03125 0.265625q0.265625 0 0.5 -0.015625q0.25 -0.015625 0.4375 -0.0625l0 2.359375q-0.375 0.0625 -0.84375 0.078125q-0.453125 0.03125 -0.90625 0.03125q-1.96875 0 -2.734375 -0.671875q-0.765625 -0.671875 -0.765625 -1.875l0 -6.578125l-1.828125 0l0 -2.03125l1.828125 0l0 -3.296875l3.03125 0zm8.670044 3.015625q2.453125 0 3.90625 1.6875q1.46875 1.671875 1.46875 4.28125l-0.03125 0.5625l-7.953125 0q0.0625 1.421875 0.75 2.109375q0.6875 0.6875 1.953125 0.6875q0.828125 0 1.515625 -0.421875q0.703125 -0.421875 0.890625 -1.015625l2.65625 0q-0.609375 1.875 -1.890625 2.796875q-1.28125 0.921875 -3.265625 0.921875q-2.546875 0 -4.09375 -1.609375q-1.546875 -1.609375 -1.546875 -4.1875q0 -2.46875 1.578125 -4.140625q1.578125 -1.671875 4.0625 -1.671875zm-2.609375 4.609375l4.9375 0q-0.21875 -1.21875 -0.796875 -1.78125q-0.5625 -0.5625 -1.640625 -0.5625q-1.09375 0 -1.75 0.625q-0.640625 0.625 -0.75 1.71875zm16.18451 -4.609375q0.203125 0 0.359375 0.03125q0.171875 0.015625 0.328125 0.0625l0 2.8125q-0.265625 -0.046875 -0.515625 -0.078125q-0.234375 -0.03125 -0.578125 -0.03125q-1.53125 0 -2.265625 0.9375q-0.734375 0.9375 -0.734375 2.515625l0 5.0625l-3.015625 0l0 -11.03125l2.875 0l0 2.046875l0.046875 0q0.46875 -1.078125 1.421875 -1.703125q0.953125 -0.625 2.078125 -0.625z" fill-rule="nonzero"/><path fill="#000000" fill-opacity="0.0" d="m233.8084 257.24408l115.96852 0l0 45.13388l-115.96852 0z" fill-rule="evenodd"/><path fill="#441122" d="m251.8709 271.50534l5.6875153 15.203125l-3.4687653 0l-1.140625 -3.375l-5.703125 0l-1.203125 3.390625l-3.375 0l5.78125 -15.21875l3.421875 0zm-1.765625 3.75l-1.984375 5.578125l3.953125 0l-1.921875 -5.578125l-0.046875 0zm11.486038 0.4375l0 6.328125q0 1.25 0.4375 1.9375q0.4375 0.671875 1.515625 0.671875q1.25 0 1.796875 -0.75q0.546875 -0.765625 0.546875 -2.296875l0 -5.890625l3.03125 0l0 11.03125l-2.890625 0l0 -1.53125l-0.0625 0q-0.5625 0.921875 -1.46875 1.375q-0.90625 0.453125 -1.90625 0.453125q-2.0625 0 -3.046875 -1.046875q-0.96875 -1.046875 -0.96875 -3.375l0 -6.90625l3.015625 0zm13.455231 -3.296875l0 3.296875l2.21875 0l0 2.03125l-2.21875 0l0 5.53125q0 0.671875 0.25 0.9375q0.265625 0.265625 1.03125 0.265625q0.265625 0 0.5 -0.015625q0.25 -0.015625 0.4375 -0.0625l0 2.359375q-0.375 0.0625 -0.84375 0.078125q-0.453125 0.03125 -0.90625 0.03125q-1.96875 0 -2.734375 -0.671875q-0.765625 -0.671875 -0.765625 -1.875l0 -6.578125l-1.828125 0l0 -2.03125l1.828125 0l0 -3.296875l3.03125 0zm6.696106 3.296875l0 6.328125q0 1.25 0.4375 1.9375q0.4375 0.671875 1.515625 0.671875q1.25 0 1.796875 -0.75q0.546875 -0.765625 0.546875 -2.296875l0 -5.890625l3.03125 0l0 11.03125l-2.890625 0l0 -1.53125l-0.0625 0q-0.5625 0.921875 -1.46875 1.375q-0.90625 0.453125 -1.90625 0.453125q-2.0625 0 -3.046875 -1.046875q-0.96875 -1.046875 -0.96875 -3.375l0 -6.90625l3.015625 0zm15.986481 -0.28125q1.21875 0 2.015625 0.46875q0.8125 0.46875 1.1875 1.359375q0.625 -0.890625 1.484375 -1.359375q0.859375 -0.46875 1.859375 -0.46875q2.0 0 3.015625 1.015625q1.015625 1.015625 1.015625 2.8125l0 7.484375l-3.03125 0l0 -6.375q0 -1.515625 -0.453125 -2.03125q-0.4375 -0.53125 -1.40625 -0.53125q-1.015625 0 -1.53125 0.6875q-0.5 0.6875 -0.5 2.015625l0 6.234375l-3.03125 0l0 -6.796875q0 -1.09375 -0.421875 -1.609375q-0.40625 -0.53125 -1.390625 -0.53125q-0.875 0 -1.46875 0.671875q-0.59375 0.65625 -0.59375 1.796875l0 6.46875l-3.03125 0l0 -11.03125l2.859375 0l0 1.5l0.046875 0q0.640625 -0.90625 1.484375 -1.34375q0.859375 -0.4375 1.890625 -0.4375zm19.286957 0q2.109375 0 3.0625 1.0625q0.953125 1.0625 0.953125 3.359375l0 6.890625l-3.03125 0l0 -6.328125q0 -1.28125 -0.453125 -1.9375q-0.4375 -0.671875 -1.484375 -0.671875q-1.265625 0 -1.8125 0.75q-0.546875 0.75 -0.546875 2.296875l0 5.890625l-3.015625 0l0 -11.03125l2.875 0l0 1.546875l0.0625 0q0.546875 -0.890625 1.4375 -1.359375q0.890625 -0.46875 1.953125 -0.46875z" fill-rule="nonzero"/><path fill="#000000" fill-opacity="0.0" d="m67.93964 254.06824l115.968506 0l0 45.13385l-115.968506 0z" fill-rule="evenodd"/><path fill="#441122" d="m83.65839 267.9545q2.765625 0 4.421875 1.28125q1.671875 1.28125 1.671875 3.625l-3.234375 0q-0.078125 -1.140625 -0.796875 -1.71875q-0.703125 -0.578125 -2.203125 -0.578125q-1.015625 0 -1.671875 0.453125q-0.640625 0.4375 -0.640625 1.28125q0 0.5625 0.265625 0.84375q0.265625 0.28125 1.109375 0.59375q0.84375 0.296875 3.65625 0.96875q1.890625 0.453125 2.953125 1.546875q1.0625 1.09375 1.0625 2.78125q0 2.203125 -1.65625 3.546875q-1.640625 1.328125 -4.65625 1.328125q-2.875 0 -4.6875 -1.40625q-1.8125 -1.421875 -1.8125 -3.921875l0 -0.078125l3.234375 0q0.03125 1.40625 0.953125 2.109375q0.921875 0.703125 2.421875 0.703125q1.359375 0 2.15625 -0.5q0.8125 -0.5 0.8125 -1.40625q0 -0.734375 -0.625 -1.203125q-0.609375 -0.484375 -1.96875 -0.828125q-1.75 -0.390625 -3.1875 -0.828125q-1.421875 -0.453125 -2.359375 -1.4375q-0.921875 -1.0 -0.921875 -2.546875q0 -2.046875 1.640625 -3.328125q1.640625 -1.28125 4.0625 -1.28125zm14.481003 4.28125q2.34375 0 3.671875 1.640625q1.34375 1.625 1.34375 4.28125q0 2.4375 -1.3125 4.0625q-1.3125 1.625 -3.53125 1.625q-1.015625 0 -1.890625 -0.421875q-0.875 -0.4375 -1.40625 -1.234375l-0.0625 0l0 5.25l-3.015625 0l0 -14.921875l2.875 0l0 1.40625l0.046875 0q0.53125 -0.859375 1.375 -1.265625q0.84375 -0.421875 1.90625 -0.421875zm-3.28125 5.828125q0 1.59375 0.671875 2.546875q0.671875 0.953125 1.96875 0.953125q1.265625 0 1.9375 -0.90625q0.6875 -0.921875 0.6875 -2.59375q0 -1.578125 -0.6875 -2.5625q-0.671875 -1.0 -1.984375 -1.0q-1.25 0 -1.921875 0.9375q-0.671875 0.9375 -0.671875 2.625zm16.528076 -5.828125q0.203125 0 0.359375 0.03125q0.171875 0.015625 0.328125 0.0625l0 2.8125q-0.265625 -0.046875 -0.515625 -0.078125q-0.234375 -0.03125 -0.578125 -0.03125q-1.53125 0 -2.265625 0.9375q-0.734375 0.9375 -0.734375 2.515625l0 5.0625l-3.015625 0l0 -11.03125l2.875 0l0 2.046875l0.046875 0q0.46875 -1.078125 1.421875 -1.703125q0.953125 -0.625 2.078125 -0.625zm4.987564 -3.90625l0 2.484375l-3.03125 0l0 -2.484375l3.03125 0zm0 4.1875l0 11.03125l-3.03125 0l0 -11.03125l3.03125 0zm8.717407 -0.28125q2.109375 0 3.0625 1.0625q0.953125 1.0625 0.953125 3.359375l0 6.890625l-3.03125 0l0 -6.328125q0 -1.28125 -0.453125 -1.9375q-0.4375 -0.671875 -1.484375 -0.671875q-1.265625 0 -1.8125 0.75q-0.546875 0.75 -0.546875 2.296875l0 5.890625l-3.015625 0l0 -11.03125l2.875 0l0 1.546875l0.0625 0q0.546875 -0.890625 1.4375 -1.359375q0.890625 -0.46875 1.953125 -0.46875zm10.705246 0q1.203125 0 1.984375 0.453125q0.796875 0.4375 1.296875 1.296875l0.046875 0l0 -1.46875l2.875 0l0 10.421875q0 2.21875 -1.421875 3.5q-1.40625 1.28125 -4.28125 1.28125q-1.9375 0 -3.34375 -0.9375q-1.390625 -0.921875 -1.53125 -2.59375l3.0 0q0.21875 0.796875 0.796875 1.15625q0.578125 0.359375 1.46875 0.359375q1.171875 0 1.796875 -0.703125q0.640625 -0.703125 0.640625 -1.953125l0 -1.53125l-0.046875 0q-0.4375 0.8125 -1.3125 1.265625q-0.875 0.4375 -2.0 0.4375q-2.21875 0 -3.46875 -1.46875q-1.234375 -1.484375 -1.234375 -4.0625q0 -2.34375 1.296875 -3.890625q1.296875 -1.5625 3.4375 -1.5625zm-1.703125 5.40625q0 1.546875 0.640625 2.421875q0.640625 0.875 1.8125 0.875q1.1875 0 1.875 -0.875q0.703125 -0.875 0.703125 -2.1875q0 -1.609375 -0.65625 -2.484375q-0.65625 -0.890625 -1.9375 -0.890625q-1.125 0 -1.78125 0.859375q-0.65625 0.859375 -0.65625 2.28125z" fill-rule="nonzero"/><path fill="#000000" fill-opacity="0.0" d="m61.603676 97.28346l115.9685 0l0 45.133865l-115.9685 0z" fill-rule="evenodd"/><path fill="#441122" d="m77.322426 111.169716q2.765625 0 4.421875 1.28125q1.671875 1.28125 1.671875 3.625l-3.234375 0q-0.078125 -1.140625 -0.796875 -1.71875q-0.703125 -0.578125 -2.203125 -0.578125q-1.015625 0 -1.671875 0.453125q-0.640625 0.4375 -0.640625 1.28125q0 0.5625 0.265625 0.84375q0.265625 0.28125 1.109375 0.59375q0.84375 0.296875 3.65625 0.96875q1.890625 0.453125 2.953125 1.546875q1.0625 1.09375 1.0625 2.78125q0 2.203125 -1.65625 3.546875q-1.640625 1.328125 -4.65625 1.328125q-2.875 0 -4.6875 -1.40625q-1.8125 -1.421875 -1.8125 -3.921875l0 -0.078125l3.234375 0q0.03125 1.40625 0.953125 2.109375q0.921875 0.703125 2.421875 0.703125q1.359375 0 2.15625 -0.5q0.8125 -0.5 0.8125 -1.40625q0 -0.734375 -0.625 -1.203125q-0.609375 -0.484375 -1.96875 -0.828125q-1.75 -0.390625 -3.1875 -0.828125q-1.421875 -0.453125 -2.359375 -1.4375q-0.921875 -1.0 -0.921875 -2.546875q0 -2.046875 1.640625 -3.328125q1.640625 -1.28125 4.0625 -1.28125zm11.293503 4.5625l0 6.328125q0 1.25 0.4375 1.9375q0.4375 0.671875 1.515625 0.671875q1.25 0 1.796875 -0.75q0.546875 -0.765625 0.546875 -2.296875l0 -5.890625l3.03125 0l0 11.03125l-2.890625 0l0 -1.53125l-0.0625 0q-0.5625 0.921875 -1.46875 1.375q-0.90625 0.453125 -1.90625 0.453125q-2.0625 0 -3.046875 -1.046875q-0.96875 -1.046875 -0.96875 -3.375l0 -6.90625l3.015625 0zm15.986496 -0.28125q1.21875 0 2.015625 0.46875q0.8125 0.46875 1.1875 1.359375q0.625 -0.890625 1.484375 -1.359375q0.859375 -0.46875 1.859375 -0.46875q2.0 0 3.015625 1.015625q1.015625 1.015625 1.015625 2.8125l0 7.484375l-3.03125 0l0 -6.375q0 -1.515625 -0.453125 -2.03125q-0.4375 -0.53125 -1.40625 -0.53125q-1.015625 0 -1.53125 0.6875q-0.5 0.6875 -0.5 2.015625l0 6.234375l-3.03125 0l0 -6.796875q0 -1.09375 -0.421875 -1.609375q-0.40625 -0.53125 -1.390625 -0.53125q-0.875 0 -1.46875 0.671875q-0.59375 0.65625 -0.59375 1.796875l0 6.46875l-3.03125 0l0 -11.03125l2.859375 0l0 1.5l0.046875 0q0.640625 -0.90625 1.484375 -1.34375q0.859375 -0.4375 1.890625 -0.4375zm19.318207 0q1.21875 0 2.015625 0.46875q0.8125 0.46875 1.1875 1.359375q0.625 -0.890625 1.4843674 -1.359375q0.859375 -0.46875 1.859375 -0.46875q2.0 0 3.015625 1.015625q1.015625 1.015625 1.015625 2.8125l0 7.484375l-3.03125 0l0 -6.375q0 -1.515625 -0.453125 -2.03125q-0.4375 -0.53125 -1.40625 -0.53125q-1.015625 0 -1.53125 0.6875q-0.49999237 0.6875 -0.49999237 2.015625l0 6.234375l-3.03125 0l0 -6.796875q0 -1.09375 -0.421875 -1.609375q-0.40625 -0.53125 -1.390625 -0.53125q-0.875 0 -1.46875 0.671875q-0.59375 0.65625 -0.59375 1.796875l0 6.46875l-3.03125 0l0 -11.03125l2.859375 0l0 1.5l0.046875 0q0.640625 -0.90625 1.484375 -1.34375q0.859375 -0.4375 1.890625 -0.4375zm18.052574 0q2.453125 0 3.90625 1.6875q1.46875 1.671875 1.46875 4.28125l-0.03125 0.5625l-7.953125 0q0.0625 1.421875 0.75 2.109375q0.6875 0.6875 1.953125 0.6875q0.828125 0 1.515625 -0.421875q0.703125 -0.421875 0.890625 -1.015625l2.65625 0q-0.609375 1.875 -1.890625 2.796875q-1.28125 0.921875 -3.265625 0.921875q-2.546875 0 -4.09375 -1.609375q-1.546875 -1.609375 -1.546875 -4.1875q0 -2.46875 1.578125 -4.140625q1.578125 -1.671875 4.0625 -1.671875zm-2.609375 4.609375l4.9375 0q-0.21875 -1.21875 -0.796875 -1.78125q-0.5625 -0.5625 -1.640625 -0.5625q-1.09375 0 -1.75 0.625q-0.640625 0.625 -0.75 1.71875zm16.18451 -4.609375q0.203125 0 0.359375 0.03125q0.171875 0.015625 0.328125 0.0625l0 2.8125q-0.265625 -0.046875 -0.515625 -0.078125q-0.234375 -0.03125 -0.578125 -0.03125q-1.53125 0 -2.265625 0.9375q-0.734375 0.9375 -0.734375 2.515625l0 5.0625l-3.015625 0l0 -11.03125l2.875 0l0 2.046875l0.046875 0q0.46875 -1.078125 1.421875 -1.703125q0.953125 -0.625 2.078125 -0.625z" fill-rule="nonzero"/></g></svg>